<svg width="211" height="72" viewBox="0 0 211 72" fill="none" xmlns="http://www.w3.org/2000/svg">
<path d="M118.203 25.8797C132.971 24.5189 134.204 45.554 120.336 46.6231C105.931 47.7332 104.227 27.1637 118.203 25.8797ZM118.188 30.7701C111.43 31.916 112.867 42.7353 120.275 41.6662C127.119 40.684 125.984 29.4452 118.188 30.7701Z" fill="white"/>
<path d="M97.6492 26.5439V34.3809L103.905 26.5439H110.157L102.591 35.6854L110.648 45.896H104.391L97.6492 37.5679V45.896H92.7383V26.5439H97.6492Z" fill="white"/>
<path d="M90.2883 26.5439V30.708H84.1548V34.1354H90.0428V38.2994H84.1548V41.732H90.2883V45.896H79.249V26.5439H90.2883Z" fill="white"/>
<path d="M195.535 47.4873C194.711 53.2832 186.066 53.5697 182.296 50.6743L184.383 47.6101C187.293 50.0706 192.603 49.7842 191.857 44.9142C188.797 48.0654 183.073 46.0703 182.347 41.7937C181.272 35.4351 186.761 31.0664 192.097 35.3584V33.8902H195.535V47.4873ZM189.033 36.9544C185.626 36.9442 184.772 42.0341 188.214 43.0317C192.675 44.3208 193.719 36.9647 189.033 36.9544Z" fill="white"/>
<path d="M200.323 33.8896L203.755 41.9773L206.702 33.8896H210.502L203.929 50.4742C202.456 52.8939 199.172 52.6841 196.767 52.0038L197.228 49.2158C197.473 48.8526 198.727 49.3744 199.335 49.3386C200.855 49.2465 201.617 47.6146 201.852 46.2948L196.517 33.8896H200.317H200.323Z" fill="white"/>
<path d="M171.737 41.2413H162.902C163.204 44.1572 167.036 44.5766 168.417 42.2235C168.77 42.5918 171.133 43.927 170.99 44.2953C170.555 45.4412 167.849 46.4847 166.678 46.6024C158.232 47.4618 156.155 36.3202 163.445 34.0693C168.872 32.3914 172.131 35.9774 171.732 41.2413H171.737ZM162.907 38.791H167.691L167.962 38.2845C167.025 35.3431 163.158 35.8956 162.907 38.791Z" fill="white"/>
<path d="M144.262 41.2408H135.428C135.673 44.1208 139.673 44.6119 140.947 42.223C141.3 42.5913 143.664 43.9213 143.52 44.2948C142.901 45.9215 139.341 46.7246 137.765 46.6275C129.355 46.1006 129.519 33.7772 138.246 33.634C142.738 33.5573 144.574 37.22 144.262 41.2459V41.2408ZM135.428 38.7905H140.211L140.482 38.284C139.602 35.3579 135.642 35.9462 135.428 38.7905Z" fill="white"/>
<path d="M157.511 46.3874H153.833V38.4276C153.833 38.1463 153.004 37.3022 152.667 37.1334C150.968 36.2996 149.418 38.0082 149.418 39.6503V46.3874H145.74V33.8953H149.418L149.541 35.6141C150.856 33.0666 155.388 32.9643 156.892 35.3737C157.04 35.6141 157.516 36.7804 157.516 36.9595V46.3925L157.511 46.3874Z" fill="white"/>
<path d="M181.8 33.6498V37.0772C180.234 36.8521 177.968 36.8316 177.329 38.6118C177.242 38.8471 176.894 40.2539 176.894 40.3818V46.3823H173.216V33.8902H176.894C176.976 34.1204 176.623 35.9262 177.257 35.6039C178.244 33.9055 179.886 33.44 181.8 33.6446V33.6498Z" fill="white"/>
<path d="M31.848 0.162963C68.8793 -3.10075 86.3386 43.4966 56.7555 64.7108C30.6458 83.4285 -4.9225 60.9508 0.566471 29.434C3.19074 14.3483 16.4246 1.51858 31.848 0.162963ZM35.0349 4.32701C11.0891 4.82833 -3.56177 31.511 8.97641 51.9987C21.5146 72.4864 52.3459 71.8572 63.6717 50.3105C74.9975 28.7639 58.8631 3.82568 35.0349 4.32701Z" fill="white"/>
<path d="M32.8766 24.339H38.7645V16.8703C38.7645 16.0927 40.9745 16.0927 40.9745 16.8703V24.339H45.1436C44.939 26.0885 44.5451 27.7868 43.6294 29.3164C41.8953 32.2015 37.0508 33.5213 37.0508 37.6905V53.2468L40.3299 46.8473C43.2355 42.0029 51.3078 36.3451 57.0475 36.3451H61.5849C61.544 46.2232 55.5537 55.6358 46.5402 59.6566C29.2752 67.3606 10.358 54.9452 10.0664 36.3451H14.6039C20.7476 36.3451 29.1422 42.5554 32.0018 47.8755L34.5954 53.2468V37.6905C34.5954 33.6083 29.5105 32.002 27.7713 28.8253C26.963 27.3469 26.743 25.9759 26.4975 24.339H30.6667V16.8703C30.6667 16.0927 32.8766 16.0927 32.8766 16.8703V24.339Z" fill="white"/>
</svg>
