<svg width="740" height="105" viewBox="0 0 740 105" fill="none" xmlns="http://www.w3.org/2000/svg">
<g clip-path="url(#clip0_21391_16159)">
<path d="M69.5831 58.3484C68.7313 57.6581 69.1792 56.2776 70.2733 56.2188C79.2319 55.7195 91.5683 56.4318 105.19 61.2783L106.152 61.6161C106.724 58.4805 107.04 55.2569 107.04 51.9525C107.04 50.6821 106.989 49.4338 106.893 48.1854C106.857 47.6934 106.519 47.2749 106.049 47.128C98.5809 44.7782 91.5169 43.4711 85.099 42.8396C84.049 42.7368 83.6304 41.4517 84.4161 40.7468C89.2332 36.4584 94.1751 31.2521 98.838 24.9663C99.1317 24.5698 99.161 24.019 98.8967 23.6005C96.5029 19.782 93.6391 16.3014 90.3861 13.2099L89.828 14.025C81.6625 25.9503 72.1091 33.7855 64.5678 38.6466C63.6425 39.2414 62.475 38.3896 62.754 37.3322C65.0451 28.6526 69.5464 17.1458 78.3581 5.69049L78.9822 4.88274C75.0757 2.76057 70.8681 1.12304 66.4476 0.0215642C65.9703 -0.0959265 65.4563 0.0949959 65.1699 0.49887C60.6319 6.87274 57.2026 13.1879 54.6179 19.0991C54.1993 20.0611 52.8408 20.0611 52.4223 19.0991C49.8375 13.1879 46.4083 6.87274 41.8703 0.49887C41.5839 0.0949959 41.0699 -0.0959265 40.5926 0.0215642C36.1794 1.12304 31.9718 2.76057 28.0579 4.88274L28.6821 5.69049C37.5085 17.1532 42.0024 28.6746 44.2935 37.3542C44.5725 38.4117 43.405 39.2635 42.4797 38.6687C34.931 33.8148 25.3557 25.987 17.1755 14.0544L16.6174 13.2393C13.3717 16.3307 10.5079 19.8261 8.12142 23.6372C7.85707 24.0558 7.88644 24.5992 8.18017 25.003C12.843 31.2814 17.7923 36.4878 22.6167 40.7688C23.4024 41.4664 22.9838 42.7515 21.9411 42.8616C15.5233 43.5005 8.4592 44.8149 0.998623 47.1721C0.528665 47.3189 0.190883 47.7448 0.154167 48.2368C0.0660501 49.4631 0.0146484 50.6968 0.0146484 51.9451C0.0146484 55.2642 0.330401 58.5026 0.910506 61.6601L1.87245 61.315C15.4865 56.4612 27.8229 55.7269 36.7815 56.2262C37.8756 56.2849 38.3236 57.6655 37.4718 58.3557C30.5178 64.032 20.12 70.7069 6.26362 74.7971L5.27964 75.0835C7.24025 79.1589 9.71487 82.9407 12.5934 86.3626C12.9091 86.7371 13.4378 86.8839 13.9078 86.7224C21.317 84.233 27.7936 81.1416 33.3523 77.8812C34.2628 77.3525 35.3569 78.1456 35.1293 79.1736C33.7561 85.4814 32.8236 92.6116 32.7575 100.439C32.7575 100.931 33.0512 101.387 33.5065 101.57C37.6113 103.23 41.9657 104.383 46.4964 104.978L46.467 103.964C46.0558 89.5201 49.1766 77.5581 52.4149 69.1942C52.8115 68.1735 54.2581 68.1735 54.6546 69.1942C57.9002 77.5654 61.0357 89.5128 60.6392 103.957L60.6098 104.97C65.1405 104.368 69.495 103.208 73.5998 101.548C74.055 101.365 74.3561 100.909 74.3488 100.41C74.2753 92.5822 73.3354 85.452 71.9549 79.1442C71.7273 78.1162 72.8214 77.3231 73.7319 77.8518C79.2907 81.1049 85.7746 84.189 93.1838 86.671C93.6537 86.8252 94.1751 86.6857 94.4982 86.3038C97.3767 82.8819 99.844 79.0928 101.805 75.0174L100.821 74.731C86.9568 70.6555 76.5517 63.9879 69.5904 58.319L69.5831 58.3484Z" fill="#002148"/>
<path d="M720.438 58.8407V82.0451H709.262V58.8407L689.7 22.7637H701.978L712.985 43.8533C713.719 45.3806 714.344 46.8199 714.85 48.171L716.715 43.8533L727.723 22.7637H740L720.438 58.8407Z" fill="#002148"/>
<path d="M661.76 42.3259L656.34 56.5569H671.585L666.165 42.3259C665.431 40.4093 664.697 38.2578 663.963 35.8859L661.76 42.3259ZM634.656 82.0451L658.624 22.7637H669.294L693.261 82.0451H681.322L675.396 66.5437H652.529L646.603 82.0451H634.664H634.656Z" fill="#002148"/>
<path d="M592.991 32.5888V45.7992H605.357C608.463 45.7992 610.717 45.2631 612.135 44.191C613.603 43.1189 614.338 41.452 614.338 39.1977C614.338 36.9433 613.603 35.2764 612.135 34.2043C610.725 33.1322 608.463 32.5962 605.357 32.5962H592.991V32.5888ZM592.991 55.6244V72.051H605.952C612.95 72.051 616.452 69.312 616.452 63.834C616.452 58.356 612.95 55.617 605.952 55.617H592.991V55.6244ZM581.808 82.0451V22.7637H606.201C612.245 22.7637 616.9 24.034 620.175 26.5748C623.509 29.1155 625.169 32.6696 625.169 37.2444C625.169 40.1229 624.376 42.6637 622.797 44.8666C621.269 47.0108 619.323 48.6777 616.952 49.86C624.067 52.6798 627.621 57.4822 627.621 64.2599C627.621 69.6792 625.587 73.997 621.526 77.2206C617.517 80.4369 612.553 82.0451 606.62 82.0451H581.808Z" fill="#002148"/>
<path d="M508.377 58.8407V82.0451H497.201V58.8407L477.639 22.7637H489.916L500.924 43.8533C501.658 45.3806 502.282 46.8199 502.789 48.171L504.654 43.8533L515.661 22.7637H527.939L508.377 58.8407Z" fill="#002148"/>
<path d="M461.139 82.0965L458.767 73.9676C454.816 80.1799 448.802 83.2861 440.725 83.2861C432.648 83.2861 425.371 80.3782 419.724 74.5624C414.136 68.7466 411.338 61.3814 411.338 52.4594C411.338 43.5375 414.305 36.1723 420.23 30.3565C426.215 24.5407 433.499 21.6328 442.083 21.6328C447.899 21.6328 453.091 22.9619 457.665 25.6128C462.292 28.2123 465.736 31.7076 467.997 36.1135L459.611 42.2084C455.888 35.0414 449.985 31.4506 441.915 31.4506C436.554 31.4506 432.009 33.3672 428.278 37.2077C424.555 41.0482 422.69 46.1296 422.69 52.4521C422.69 58.4368 424.416 63.3494 427.86 67.1898C431.362 71.0303 435.761 72.9469 441.07 72.9469C445.872 72.9469 449.625 71.7059 452.334 69.2239C455.044 66.6832 456.711 63.4669 457.328 59.5676H438.192V50.418H468.511V82.0891H461.146L461.139 82.0965Z" fill="#002148"/>
<path d="M363.358 32.5888V48.171H377.501C384.109 48.171 387.406 45.5716 387.406 40.3799C387.406 35.1883 384.102 32.5888 377.501 32.5888H363.358ZM386.562 82.0451L372.845 57.9962H363.358V82.0451H352.182V22.7637H377.501C383.992 22.7637 389.132 24.2911 392.914 27.3385C396.695 30.3271 398.59 34.3953 398.59 39.5355C398.59 47.9507 394.074 53.7665 385.042 56.9828L399.354 82.0524H386.569L386.562 82.0451Z" fill="#002148"/>
<path d="M293.012 82.0451V22.7637H333.92V32.7577H304.188V46.394H331.548V56.3881H304.188V72.051H334.17V82.0451H293.012Z" fill="#002148"/>
<path d="M225.551 82.0451V22.7637H236.896L261.627 60.4488C262.986 62.7105 263.83 64.2599 264.168 65.1044V22.7637H275.007V82.0451H263.661L238.93 44.1029C237.571 41.8412 236.727 40.2918 236.389 39.4474V82.0451H225.551Z" fill="#002148"/>
<path d="M166.38 82.0451V22.7637H207.288V32.7577H177.563V46.394H204.916V56.3881H177.563V72.051H207.538V82.0451H166.38Z" fill="#002148"/>
</g>
<defs>
<clipPath id="clip0_21391_16159">
<rect width="740" height="105" fill="white"/>
</clipPath>
</defs>
</svg>
