<svg width="27" height="27" viewBox="0 0 27 27" fill="none" xmlns="http://www.w3.org/2000/svg">
<path d="M26.46 13.8068C26.46 12.8495 26.3741 11.929 26.2145 11.0454H13.5V16.2736H20.7655C20.4464 17.955 19.4891 19.3786 18.0532 20.3359V23.7354H22.4345C24.9873 21.379 26.46 17.9181 26.46 13.8068Z" fill="#4285F4"/>
<path d="M13.5001 26.9994C17.1451 26.9994 20.201 25.7967 22.4346 23.7348L18.0532 20.3353C16.8505 21.1453 15.3164 21.6362 13.5001 21.6362C9.99006 21.6362 7.00779 19.2676 5.94006 16.0767H1.44824V19.5621C3.66961 23.968 8.22279 26.9994 13.5001 26.9994Z" fill="#34A853"/>
<path d="M5.94 16.0652C5.67 15.2552 5.51045 14.3961 5.51045 13.5002C5.51045 12.6043 5.67 11.7452 5.94 10.9352V7.44971H1.44818C0.527727 9.26607 0 11.3156 0 13.5002C0 15.6847 0.527727 17.7343 1.44818 19.5506L4.94591 16.8261L5.94 16.0652Z" fill="#FBBC05"/>
<path d="M13.5001 5.37545C15.4882 5.37545 17.2555 6.06273 18.6669 7.38818L22.5328 3.52227C20.1887 1.33773 17.1451 0 13.5001 0C8.22279 0 3.66961 3.03136 1.44824 7.44954L5.94006 10.935C7.00779 7.74409 9.99006 5.37545 13.5001 5.37545Z" fill="#EA4335"/>
</svg>
