<svg width="58" height="58" viewBox="0 0 58 58" fill="none" xmlns="http://www.w3.org/2000/svg">
<path d="M28.75 0.5C44.348 0.5 57 13.2558 57 29C57 44.7442 44.348 57.5 28.75 57.5C13.152 57.5 0.5 44.7442 0.5 29C0.5 13.2558 13.152 0.500001 28.75 0.5Z" stroke="#F5F5F7"/>
<g clip-path="url(#clip0_21398_2927)">
<path d="M29 18.501C32.4734 18.501 32.8848 18.5164 34.2508 18.5779C35.5203 18.6342 36.2059 18.8493 36.6629 19.0286C37.2672 19.2642 37.7039 19.5511 38.1559 20.007C38.6129 20.468 38.8922 20.9034 39.1258 21.5129C39.3035 21.9739 39.5168 22.6706 39.5727 23.946C39.6336 25.329 39.6488 25.7439 39.6488 29.2424C39.6488 32.7461 39.6336 33.161 39.5727 34.5389C39.5168 35.8195 39.3035 36.511 39.1258 36.972C38.8922 37.5815 38.6078 38.022 38.1559 38.4779C37.6988 38.9389 37.2672 39.2207 36.6629 39.4563C36.2059 39.6356 35.5152 39.8507 34.2508 39.907C32.8797 39.9685 32.4684 39.9839 29 39.9839C25.5266 39.9839 25.1152 39.9685 23.7492 39.907C22.4797 39.8507 21.7941 39.6356 21.3371 39.4563C20.7328 39.2207 20.2961 38.9338 19.8441 38.4779C19.3871 38.0169 19.1078 37.5815 18.8742 36.972C18.6965 36.511 18.4832 35.8143 18.4273 34.5389C18.3664 33.1559 18.3512 32.741 18.3512 29.2424C18.3512 25.7388 18.3664 25.3239 18.4273 23.946C18.4832 22.6654 18.6965 21.9739 18.8742 21.5129C19.1078 20.9034 19.3922 20.4629 19.8441 20.007C20.3012 19.546 20.7328 19.2642 21.3371 19.0286C21.7941 18.8493 22.4848 18.6342 23.7492 18.5779C25.1152 18.5164 25.5266 18.501 29 18.501ZM29 16.1396C25.4707 16.1396 25.0289 16.155 23.6426 16.2165C22.2613 16.278 21.3117 16.5033 20.4891 16.826C19.6309 17.1641 18.9047 17.6097 18.1836 18.3422C17.4574 19.0696 17.0156 19.8021 16.6805 20.6626C16.3605 21.4976 16.1371 22.4503 16.0762 23.8436C16.0152 25.2471 16 25.6927 16 29.2527C16 32.8127 16.0152 33.2583 16.0762 34.6567C16.1371 36.05 16.3605 37.0078 16.6805 37.8376C17.0156 38.7033 17.4574 39.4358 18.1836 40.1632C18.9047 40.8905 19.6309 41.3413 20.484 41.6742C21.3117 41.9969 22.2563 42.2223 23.6375 42.2838C25.0238 42.3452 25.4656 42.3606 28.9949 42.3606C32.5242 42.3606 32.966 42.3452 34.3523 42.2838C35.7336 42.2223 36.6832 41.9969 37.5059 41.6742C38.359 41.3413 39.0852 40.8905 39.8063 40.1632C40.5273 39.4358 40.9742 38.7033 41.3043 37.8428C41.6242 37.0078 41.8477 36.0551 41.9086 34.6618C41.9695 33.2634 41.9848 32.8178 41.9848 29.2578C41.9848 25.6978 41.9695 25.2522 41.9086 23.8538C41.8477 22.4605 41.6242 21.5027 41.3043 20.6729C40.9844 19.8021 40.5426 19.0696 39.8164 18.3422C39.0953 17.6149 38.3691 17.1641 37.516 16.8312C36.6883 16.5085 35.7438 16.2831 34.3625 16.2216C32.9711 16.155 32.5293 16.1396 29 16.1396Z" fill="white"/>
<path d="M29 22.5166C25.3133 22.5166 22.3223 25.5336 22.3223 29.2524C22.3223 32.9712 25.3133 35.9882 29 35.9882C32.6867 35.9882 35.6777 32.9712 35.6777 29.2524C35.6777 25.5336 32.6867 22.5166 29 22.5166ZM29 33.6217C26.6082 33.6217 24.6684 31.665 24.6684 29.2524C24.6684 26.8398 26.6082 24.8831 29 24.8831C31.3918 24.8831 33.3316 26.8398 33.3316 29.2524C33.3316 31.665 31.3918 33.6217 29 33.6217Z" fill="#F5F5F7"/>
<path d="M37.5008 22.2503C37.5008 23.1211 36.8 23.8228 35.9418 23.8228C35.0785 23.8228 34.3828 23.1159 34.3828 22.2503C34.3828 21.3795 35.0836 20.6777 35.9418 20.6777C36.8 20.6777 37.5008 21.3846 37.5008 22.2503Z" fill="white"/>
</g>
<defs>
<clipPath id="clip0_21398_2927">
<rect width="26" height="26.2261" fill="white" transform="translate(16 16.1396)"/>
</clipPath>
</defs>
</svg>
