<svg width="417" height="57" viewBox="0 0 417 57" fill="none" xmlns="http://www.w3.org/2000/svg">
<path d="M29.5404 33.6854C30.3049 35.1873 31.0731 36.6087 31.8529 37.9532C26.3943 47.4299 20.759 53.1882 16.9905 56.3535C14.2286 54.8938 11.7048 53.0384 9.49595 50.8641C10.6369 50.0344 12.4654 48.5631 14.655 46.289C17.3132 43.527 20.9357 39.1094 24.5581 32.652H0.314995C0.107559 31.1884 0 29.6941 0 28.1768C0 26.6594 0.103718 25.1613 0.314995 23.7015H24.5581C22.0689 19.2686 18.7806 14.3516 14.6588 10.0645C12.4692 7.79044 10.6407 6.32302 9.4998 5.49328C11.7086 3.31904 14.2286 1.46364 16.9944 0.00390625C20.759 3.16922 26.3943 8.92749 31.8568 18.4042C31.0808 19.7487 30.3087 21.1701 29.5443 22.6682V22.6759C29.3675 23.0139 29.1985 23.3558 29.0257 23.7054C28.6069 24.5543 28.1921 25.4225 27.7849 26.3175C27.4929 26.9514 27.201 27.5775 26.9052 28.1845C27.2202 28.8298 27.516 29.456 27.7849 30.0514C28.1959 30.9464 28.6069 31.8146 29.0257 32.6635C29.1947 33.0093 29.3675 33.355 29.5404 33.693V33.7007V33.6854Z" fill="#002148"/>
<path d="M63.3828 32.652H39.1435C41.6328 37.0888 44.921 42.0058 49.0428 46.2889C51.2324 48.5631 53.0571 50.0305 54.2018 50.8602C51.9969 53.0344 49.4731 54.8898 46.7111 56.3534C42.9465 53.1881 37.3112 47.4298 31.8525 37.9531C32.6976 36.4857 33.5389 34.9261 34.3687 33.2743V33.2666C34.4724 33.063 34.5799 32.8594 34.6798 32.652C35.0985 31.8068 35.5096 30.9348 35.9206 30.0398C36.2125 29.406 36.5045 28.7798 36.8041 28.1729C36.4891 27.5275 36.1972 26.9014 35.9206 26.3059C35.5096 25.4109 35.0947 24.5427 34.6798 23.6938C34.5799 23.4864 34.4724 23.2828 34.3725 23.0792V23.0715C33.5389 21.4197 32.6976 19.8601 31.8525 18.3927C37.3073 8.92359 42.9427 3.16532 46.7073 0C49.4692 1.45973 51.993 3.31513 54.198 5.49321C53.0571 6.31911 51.2286 7.79037 49.039 10.0645C46.3807 12.8265 42.7583 17.2441 39.1358 23.7015H63.379C63.5864 25.1651 63.694 26.6594 63.694 28.1767C63.694 29.6941 63.5902 31.1922 63.379 32.652H63.3828Z" fill="#002148"/>
<path d="M113.794 21.9992V43.9758H118.834V21.9992H113.794ZM116.299 13.2715C115.396 13.2715 114.543 13.3061 113.752 13.3637V18.296C114.547 18.3537 115.396 18.3844 116.299 18.3844C117.202 18.3844 118.054 18.3537 118.857 18.296V13.3637C118.058 13.3061 117.202 13.2715 116.299 13.2715Z" fill="#002148"/>
<path d="M144.936 40.511C143.872 40.511 143.384 40.0001 143.384 38.9552V29.6168C143.384 23.9392 139.746 21.4922 134.238 21.4922C128.729 21.4922 125.153 23.9392 124.684 27.8305V28.4682H129.282C129.386 26.2133 131.303 25.0455 134.153 25.0455C137.003 25.0455 138.64 26.2363 138.64 28.5104C138.64 29.9586 137.791 30.4273 136.151 30.5771L131.111 31.065C126.854 31.4914 123.493 33.3199 123.493 37.7029C123.493 41.7863 126.897 44.4023 131.725 44.4023C136.089 44.4023 138.129 42.6583 139.235 40.7876H139.662C139.873 42.5508 141.064 43.9759 143.787 43.9759H146.023V40.511H144.936ZM138.621 34.6183C138.621 39.2318 135.536 40.8721 132.686 40.8721C130.089 40.8721 128.429 39.5737 128.429 37.5301C128.429 35.4864 129.962 34.553 132.363 34.3186L135.194 34.0229C136.854 33.85 137.533 33.6387 138.194 33.2546H138.621V34.6183Z" fill="#002148"/>
<path d="M174.811 21.5312C170.855 21.5312 168.876 23.3828 167.831 25.0615H167.409C166.748 23.3598 164.939 21.5312 161.259 21.5312C157.579 21.5312 155.75 23.1907 154.855 24.6159H154.432V21.9999H149.623V43.9766H154.621V30.8928C154.621 27.0821 156.664 25.3381 159.58 25.3381C162.111 25.3381 163.471 26.8286 163.471 29.2947V43.9766H168.45V30.8928C168.45 27.0821 170.513 25.3381 173.386 25.3381C175.894 25.3381 177.3 26.8286 177.3 29.2947V43.9766H182.298V28.9336C182.298 23.8707 178.956 21.5312 174.811 21.5312Z" fill="#002148"/>
<path d="M197.956 21.4893C191.256 21.4893 186.531 25.4882 186.531 32.9751C186.531 40.462 191.256 44.4839 197.956 44.4839C204.655 44.4839 209.357 40.485 209.357 32.9751C209.357 25.4651 204.636 21.4893 197.956 21.4893ZM197.956 40.7462C194.149 40.7462 191.636 38.0419 191.636 32.9789C191.636 27.9159 194.149 25.2385 197.956 25.2385C201.762 25.2385 204.252 27.939 204.252 32.9789C204.252 38.0188 201.743 40.7462 197.956 40.7462Z" fill="#002148"/>
<path d="M225.887 21.5312C221.611 21.5312 219.782 23.5518 219.06 24.8272H218.634V21.9999H213.782V43.9766H218.826V31.2961C218.826 27.1704 221.442 25.3381 224.504 25.3381C227.208 25.3381 228.952 26.721 228.952 29.6789V43.9766H233.992V29.3792C233.992 24.2548 230.823 21.5312 225.887 21.5312Z" fill="#002148"/>
<path d="M255.523 13.3408V24.5308H255.096C254.159 23.1479 252.181 21.5307 248.266 21.5307C242.673 21.5307 238.229 25.2761 238.229 32.9742C238.229 40.6724 242.673 44.4408 248.266 44.4408C252.181 44.4408 254.286 42.8467 255.265 41.1872H255.692V43.9722H260.539V13.3408H255.523ZM249.522 40.6378C245.8 40.6378 243.311 37.9565 243.311 32.9781C243.311 27.9996 245.8 25.3414 249.522 25.3414C253.245 25.3414 255.715 28.0227 255.715 32.9781C255.715 37.9335 253.225 40.6378 249.522 40.6378Z" fill="#002148"/>
<path d="M283.304 40.0002V30.2584H297.774V26.3018H283.304V17.3244H299.898V13.3447H278.029V43.9799H300.325V40.0041H283.304V40.0002Z" fill="#002148"/>
<path d="M316.832 21.5312C312.556 21.5312 310.728 23.5518 310.002 24.8272H309.579V21.9999H304.728V43.9766H309.767V31.2961C309.767 27.1704 312.387 25.3381 315.449 25.3381C318.149 25.3381 319.893 26.721 319.893 29.6789V43.9766H324.937V29.3792C324.937 24.2548 321.768 21.5312 316.832 21.5312Z" fill="#002148"/>
<path d="M350.34 32.1031C350.34 25.4882 346.618 21.4893 340.022 21.4893C333.426 21.4893 329.174 25.4036 329.174 32.9751C329.174 40.5465 333.43 44.4839 340.064 44.4839C346.698 44.4839 349.341 40.5081 349.894 37.6347V36.997H345.469C345.15 38.7641 343.641 40.8461 340.003 40.8461C336.365 40.8461 334.087 38.2109 334.002 34.2082H350.344V32.1031H350.34ZM334.064 30.7432C334.341 27.4895 336.277 25.0848 339.976 25.0848C343.675 25.0848 345.531 27.4242 345.573 30.7432H334.064Z" fill="#002148"/>
<path d="M360.04 25.2336H359.613V21.9991H354.762V43.9758H359.805V32.2787C359.805 26.8508 362.848 25.491 367.292 26.0441V21.7879C362.825 21.323 360.954 23.0862 360.04 25.2374V25.2336Z" fill="#002148"/>
<path d="M95.0863 13.2644C94.8059 13.2567 94.5178 13.249 94.2335 13.249H83.0166V43.8842H94.2335C94.5178 43.8842 94.8059 43.8842 95.0863 43.8689C103.776 43.5116 109.211 37.6804 109.211 28.5647C109.211 19.4491 103.779 13.6178 95.0863 13.2605V13.2644ZM95.2553 39.8623C95.0786 39.8776 94.8981 39.8892 94.7175 39.8969C94.5293 39.9045 94.3372 39.9084 94.149 39.9084H88.2985V17.2287H94.149C94.3526 17.2287 94.56 17.2326 94.7598 17.2441C94.9326 17.2479 95.1017 17.2633 95.2707 17.2787C100.768 17.755 103.983 21.9652 103.983 28.5647C103.983 35.1642 100.76 39.386 95.2553 39.8584V39.8623Z" fill="#002148"/>
<path d="M416.996 22.4141V23.7432L409.379 47.0989C408.023 51.2208 405.707 52.7535 400.828 52.7535H396.391V48.5548L396.837 48.5702C398.243 48.6125 399.672 48.6393 401.078 48.6432C401.904 48.6432 402.403 48.6355 403.037 48.405C403.421 48.2629 404.374 47.825 404.923 46.8377C405.518 45.7737 405.203 44.8824 405.199 44.8748C405.192 44.8748 405.169 44.8748 405.146 44.8748C405.107 44.8671 405.065 44.8671 405.03 44.8671H403.286C402.603 44.8671 402.003 44.433 401.792 43.7876L395.266 23.747V22.4179H399.768L406.083 42.1051C406.083 42.1051 406.091 42.1282 406.095 42.1358H406.168C406.168 42.1358 406.175 42.1128 406.179 42.0974L412.494 22.4141H417H416.996Z" fill="#002148"/>
<path d="M386.442 21.9999V24.5967H386.015C385.078 23.1485 383.058 21.5312 379.27 21.5312C373.673 21.5312 369.229 25.146 369.229 32.5715C369.229 39.9969 373.673 43.5963 379.27 43.5963C380.349 43.5963 381.287 43.4657 382.09 43.2429C383.956 42.732 385.128 41.7332 385.843 40.7844H386.265V43.4618C386.265 43.6347 386.257 43.8076 386.254 43.9766C386.196 45.2827 385.919 46.3621 385.389 47.1995C385.389 47.1995 385.389 47.2072 385.382 47.2072C385.12 47.5721 384.852 47.8026 384.663 47.9409C384.414 48.1253 384.187 48.229 384.041 48.2943C384.041 48.2943 383.695 48.448 383.323 48.544C382.585 48.7323 378.237 48.7438 372.286 48.544V52.7465H377.514C378.878 52.7811 380.522 52.7888 382.412 52.7465H382.662C382.746 52.7465 382.935 52.7465 383.192 52.7273C383.211 52.7273 383.23 52.7273 383.25 52.7273C383.269 52.7273 383.284 52.7273 383.307 52.7273C383.307 52.7273 383.326 52.7273 383.361 52.7273C383.407 52.7273 383.434 52.7273 383.469 52.7196C385.055 52.6044 386.361 52.0051 387.295 51.402C387.337 51.3751 387.379 51.3482 387.418 51.3252C387.444 51.306 387.475 51.2906 387.498 51.2714C387.552 51.2368 387.598 51.2061 387.64 51.1792C387.66 51.1639 387.683 51.1485 387.702 51.137C387.763 51.0947 387.806 51.064 387.832 51.0448C387.852 51.0294 387.867 51.0217 387.867 51.0217C387.886 51.0025 387.909 50.9872 387.928 50.9718C387.99 50.9257 388.048 50.8796 388.105 50.8297C388.566 50.4609 388.85 50.1612 388.931 50.0767C390.318 48.5747 390.775 46.9614 390.975 46.0625C391.021 45.8512 391.067 45.6361 391.101 45.4133C391.101 45.3902 391.109 45.3672 391.113 45.348C391.121 45.3019 391.128 45.2596 391.136 45.2135C391.148 45.1367 391.159 45.0599 391.171 44.9869C391.178 44.9177 391.19 44.8447 391.198 44.7756C391.198 44.7641 391.198 44.7564 391.198 44.7449C391.205 44.6719 391.213 44.6027 391.217 44.5374C391.217 44.5029 391.224 44.4644 391.224 44.4337C391.267 44.0073 391.286 43.5617 391.286 43.1046V22.0037H386.438L386.442 21.9999ZM385.101 37.5499C384.141 38.8829 382.708 39.6358 380.956 39.7626C380.776 39.7779 380.588 39.7856 380.399 39.7856C376.738 39.7856 374.311 37.2733 374.311 32.5715C374.311 29.7557 375.175 27.7236 376.65 26.5443C377.645 25.7491 378.92 25.3381 380.395 25.3381C380.668 25.3381 380.937 25.3535 381.195 25.3842C384.383 25.7261 386.457 28.2038 386.457 32.5715C386.457 34.6842 385.969 36.3476 385.097 37.5499H385.101Z" fill="#002148"/>
</svg>
