<svg width="397" height="142" viewBox="0 0 397 142" fill="none" xmlns="http://www.w3.org/2000/svg">
<path d="M211.651 4.55171C170.753 -1.96857 128.282 -1.94406 88.001 7.64027C74.4149 10.8759 61.1376 15.2391 48.2814 20.2396C32.2532 26.4657 15.5232 34.7999 6.4003 48.4043C-4.65945 64.8766 -0.785728 87.4525 13.3898 101.694C25.7408 114.097 44.5761 120.985 62.092 125.839C97.7415 135.717 135.44 138.07 172.521 140.056C205.953 141.845 239.553 142.899 273.013 140.938C303.582 139.124 336.593 135.448 363.568 121.843C374.347 116.402 384.032 108.974 390.067 99.3409C399.134 84.8296 398.797 67.1072 392.06 51.9341C382.011 29.2356 355.849 15.9009 330.473 8.93942C291.371 -1.79698 248.536 -0.791979 208.451 4.64976C196.297 6.29209 184.226 8.44917 172.268 11.023C169.546 11.6113 170.696 15.2636 173.419 14.6753C215.328 5.7283 259.876 1.19352 302.768 7.22356C331.175 11.2191 363.091 20.3622 380.663 41.6634C388.972 51.7135 393.098 64.2883 392.621 76.6915C392.116 90.3449 384.986 102.479 373.253 111.327C351.667 127.604 320.368 132.8 292.915 135.619C260.41 138.977 227.483 138.683 194.837 137.384C159.272 135.962 123.314 134.369 88.4221 127.971C66.1903 123.902 41.9936 118.093 23.9724 105.395C13.3337 97.8947 6.8775 87.9672 4.80029 75.9562C-1.20678 41.0016 41.9375 25.3872 72.4781 15.8764C104.956 5.75282 139.763 2.3456 174.065 4.23305C186.304 4.9194 198.458 6.26757 210.5 8.20405C213.223 8.64527 214.402 4.99293 211.651 4.55171Z" fill="#F5F5F7"/>
</svg>
