<svg width="18" height="17" viewBox="0 0 18 17" fill="none" xmlns="http://www.w3.org/2000/svg">
<path d="M8.31178 0.308206C8.48257 -0.10244 9.0643 -0.10244 9.2351 0.308206L11.3012 5.27569C11.3732 5.4488 11.536 5.56709 11.7229 5.58207L17.0857 6.01201C17.529 6.04755 17.7088 6.6008 17.371 6.89013L13.2851 10.3901C13.1427 10.5121 13.0805 10.7035 13.1241 10.8859L14.3724 16.1191C14.4756 16.5517 14.0049 16.8936 13.6254 16.6618L9.03406 13.8574C8.87406 13.7597 8.67282 13.7597 8.51281 13.8574L3.9215 16.6618C3.54195 16.8936 3.07132 16.5517 3.17451 16.1191L4.42282 10.8859C4.46633 10.7035 4.40414 10.5121 4.26175 10.3901L0.175851 6.89013C-0.161918 6.6008 0.017845 6.04755 0.461172 6.01201L5.82398 5.58207C6.01088 5.56709 6.17368 5.4488 6.24569 5.27569L8.31178 0.308206Z" fill="#002148"/>
</svg>
