<svg width="425" height="16" viewBox="0 0 425 16" fill="none" xmlns="http://www.w3.org/2000/svg">
<g clip-path="url(#clip0_21402_5925)">
<path d="M0 2.66174C8.49164 2.66174 8.49165 13.3383 17.0014 13.3383C25.5111 13.3383 25.493 2.66174 33.9847 2.66174C42.4763 2.66174 42.4763 13.3383 50.9861 13.3383C59.4958 13.3383 59.4777 2.66174 67.9875 2.66174C76.4972 2.66174 76.4791 13.3383 84.9889 13.3383C93.4986 13.3383 93.4805 2.66174 101.99 2.66174C110.5 2.66174 110.482 13.3383 118.992 13.3383C127.501 13.3383 127.483 2.66174 135.993 2.66174C144.503 2.66174 144.485 13.3383 152.994 13.3383C161.504 13.3383 161.504 2.66174 169.996 2.66174C178.487 2.66174 178.487 13.3383 186.997 13.3383C195.507 13.3383 195.507 2.66174 204.017 2.66174C212.526 2.66174 212.526 13.3383 221.036 13.3383" stroke="#F5F5F7" stroke-width="3" stroke-miterlimit="10"/>
</g>
<g clip-path="url(#clip1_21402_5925)">
<path d="M204 2.66174C212.492 2.66174 212.492 13.3383 221.001 13.3383C229.511 13.3383 229.493 2.66174 237.985 2.66174C246.476 2.66174 246.476 13.3383 254.986 13.3383C263.496 13.3383 263.478 2.66174 271.987 2.66174C280.497 2.66174 280.479 13.3383 288.989 13.3383C297.499 13.3383 297.481 2.66174 305.99 2.66174C314.5 2.66174 314.482 13.3383 322.992 13.3383C331.501 13.3383 331.483 2.66174 339.993 2.66174C348.503 2.66174 348.485 13.3383 356.994 13.3383C365.504 13.3383 365.504 2.66174 373.996 2.66174C382.487 2.66174 382.487 13.3383 390.997 13.3383C399.507 13.3383 399.507 2.66174 408.017 2.66174C416.526 2.66174 416.526 13.3383 425.036 13.3383" stroke="#F5F5F7" stroke-width="3" stroke-miterlimit="10"/>
</g>
<defs>
<clipPath id="clip0_21402_5925">
<rect width="221" height="16" fill="white"/>
</clipPath>
<clipPath id="clip1_21402_5925">
<rect width="221" height="16" fill="white" transform="translate(204)"/>
</clipPath>
</defs>
</svg>
